<?xml version="1.0" standalone="no"?>
<!DOCTYPE svg PUBLIC "-//W3C//DTD SVG 20010904//EN"
 "http://www.w3.org/TR/2001/REC-SVG-20010904/DTD/svg10.dtd">
<svg version="1.0" xmlns="http://www.w3.org/2000/svg"
 width="260.000000pt" height="260.000000pt" viewBox="0 0 260.000000 260.000000"
 preserveAspectRatio="xMidYMid meet">
<metadata>
Created by potrace 1.11, written by Peter Selinger 2001-2013
</metadata>
<g transform="translate(0.000000,260.000000) scale(0.100000,-0.100000)"
fill="#000000" stroke="none">
<path d="M996 2584 c-3 -9 -13 -14 -21 -10 -8 3 -21 -3 -28 -14 -8 -11 -17
-17 -20 -13 -4 3 -7 1 -7 -5 0 -6 -5 -23 -10 -37 -9 -23 -13 -25 -25 -15 -13
10 -19 9 -34 -8 -10 -12 -21 -19 -25 -15 -4 4 -9 -3 -13 -15 -4 -17 -10 -21
-29 -16 -16 4 -24 2 -24 -7 0 -8 -4 -20 -9 -28 -8 -12 -12 -12 -24 -2 -13 10
-16 8 -22 -11 -11 -41 -28 -68 -42 -68 -7 0 -13 -5 -13 -11 0 -8 -4 -8 -14 0
-11 9 -15 8 -20 -5 -3 -9 -4 -20 0 -25 3 -5 1 -9 -5 -9 -6 0 -8 -7 -5 -15 4
-9 0 -15 -10 -15 -9 0 -16 6 -16 13 -1 7 -6 5 -14 -5 -7 -10 -15 -15 -18 -12
-3 3 -8 -7 -12 -21 -4 -14 -11 -25 -17 -25 -5 0 -14 -10 -19 -22 -8 -21 -9
-21 -10 -3 0 18 -2 17 -13 -5 -7 -14 -17 -25 -22 -25 -6 0 -15 -4 -22 -8 -12
-7 -37 49 -28 63 3 5 0 12 -6 16 -7 4 -7 9 -1 13 5 3 6 15 1 26 -7 18 -8 18
-9 -5 -1 -14 -2 -42 -2 -62 0 -21 -4 -38 -9 -38 -5 0 -9 5 -9 11 0 14 -25 6
-26 -9 -1 -7 -2 -17 -3 -23 0 -5 -6 -7 -11 -4 -6 3 -10 1 -10 -5 0 -6 -5 -8
-11 -5 -6 4 -8 13 -5 21 4 11 2 12 -14 4 -26 -14 -30 -13 -30 9 0 28 -11 52
-21 45 -5 -3 -9 13 -9 35 0 22 -5 43 -12 47 -7 4 -8 3 -4 -5 4 -6 0 -14 -8
-17 -9 -3 -13 -10 -10 -15 13 -22 12 -48 -1 -42 -8 2 -14 8 -13 11 2 21 -3 42
-12 42 -5 0 -6 -7 -3 -17 5 -11 3 -14 -6 -8 -10 6 -11 3 -3 -12 8 -15 7 -22
-9 -31 -25 -16 -29 -15 -29 4 0 11 6 14 18 10 15 -5 15 -4 -2 8 -10 8 -15 19
-11 25 3 7 -2 11 -14 11 -14 0 -19 -5 -15 -15 4 -10 0 -15 -12 -15 -17 0 -16
-1 2 -15 19 -14 18 -14 -3 -15 -13 0 -27 9 -34 23 -12 22 -12 22 -20 -7 -5
-16 -6 -33 -3 -38 3 -4 -2 -5 -10 -2 -13 5 -15 -120 -16 -1070 l-1 -1076 1301
0 1300 0 0 1300 0 1300 -799 0 c-724 0 -799 -2 -805 -16z m-350 -342 c1 -7 0
-8 -3 -2 -2 5 -9 8 -14 4 -5 -3 -9 0 -9 6 0 15 23 7 26 -8z m84 -41 c0 -5 -9
-11 -21 -14 -16 -4 -18 -3 -8 9 13 16 29 19 29 5z m792 -18 c-6 -2 -9 -10 -6
-15 4 -7 2 -8 -5 -4 -13 9 -5 26 12 25 9 0 8 -2 -1 -6z m35 -31 c-10 -10 -14
-22 -10 -27 5 -4 2 -5 -4 -1 -10 5 -10 11 0 26 6 11 16 20 21 20 5 0 2 -8 -7
-18z m-1469 -17 c-3 -3 -9 2 -12 12 -6 14 -5 15 5 6 7 -7 10 -15 7 -18z m699
-7 c-3 -7 -5 -2 -5 12 0 14 2 19 5 13 2 -7 2 -19 0 -25z m709 12 c0 -11 -4
-20 -8 -20 -10 0 -11 24 -1 33 9 9 9 10 9 -13z m-1351 0 c3 -5 1 -10 -4 -10
-6 0 -11 5 -11 10 0 6 2 10 4 10 3 0 8 -4 11 -10z m2215 -15 c0 -12 -19 -12
-23 0 -4 9 -1 12 9 8 7 -3 14 -7 14 -8z m-2273 -21 c-3 -3 -12 -4 -19 -1 -8 3
-5 6 6 6 11 1 17 -2 13 -5z m2193 -89 c0 -8 -4 -15 -10 -15 -5 0 -7 7 -4 15 4
8 8 15 10 15 2 0 4 -7 4 -15z m-690 -25 c0 -5 -5 -12 -12 -16 -7 -5 -8 -3 -3
6 6 10 4 12 -8 7 -11 -4 -14 -2 -11 8 6 14 34 10 34 -5z m630 10 c0 -6 -8 -10
-17 -8 -12 2 -17 -3 -15 -14 1 -9 -2 -19 -8 -23 -5 -3 -7 0 -4 8 3 8 1 18 -5
22 -21 12 -11 25 19 25 17 0 30 -5 30 -10z m-737 -49 c6 -29 28 -41 74 -41 16
0 21 4 17 15 -4 8 -1 15 7 15 7 0 9 -3 6 -7 -4 -3 -2 -12 3 -18 6 -8 7 -23 1
-41 -18 -58 -51 -210 -54 -248 l-2 -39 68 -14 c162 -33 253 -92 318 -209 29
-50 34 -69 37 -144 8 -159 -40 -282 -153 -395 -107 -107 -218 -153 -405 -170
l-76 -6 -18 -90 -18 -89 -129 0 c-97 0 -129 3 -129 13 0 6 7 39 15 72 24 101
23 105 -34 105 -27 0 -78 9 -114 20 -173 54 -262 184 -260 380 1 105 22 180
73 259 82 127 286 233 493 257 47 6 58 10 62 28 43 198 52 242 49 245 -7 8
-193 -29 -236 -48 -68 -29 -91 -67 -86 -144 3 -68 9 -64 -72 -59 -38 3 -96 53
-103 91 -27 135 144 225 451 238 142 6 144 7 141 41 0 9 42 20 57 15 7 -2 14
-17 17 -32z m-1268 -1231 c3 -6 -1 -7 -9 -4 -18 7 -21 14 -7 14 6 0 13 -4 16
-10z m10 -30 c3 -5 2 -10 -4 -10 -5 0 -13 5 -16 10 -3 6 -2 10 4 10 5 0 13 -4
16 -10z m-114 -79 c-6 -10 -7 -21 -3 -25 3 -4 -9 -4 -28 0 -19 3 -41 7 -47 7
-7 0 -13 6 -13 13 0 9 12 11 40 9 22 -3 40 0 40 5 0 6 5 10 10 10 7 0 7 -6 1
-19z m169 -5 c0 -2 -7 -6 -15 -10 -8 -3 -15 -1 -15 4 0 6 7 10 15 10 8 0 15
-2 15 -4z m-181 -67 c-16 -10 -23 -4 -14 10 3 6 11 8 17 5 6 -4 5 -9 -3 -15z
m261 -109 c0 -5 -5 -10 -11 -10 -5 0 -7 5 -4 10 3 6 8 10 11 10 2 0 4 -4 4
-10z m64 -62 c-5 -8 -2 -9 9 -5 10 3 17 2 17 -3 0 -6 -9 -10 -20 -10 -20 0
-26 11 -13 23 10 11 15 8 7 -5z m-63 -32 c5 3 9 0 9 -5 0 -6 -7 -11 -15 -11
-8 0 -15 8 -14 18 0 10 3 12 6 4 2 -6 9 -10 14 -6z m279 4 c20 -6 21 -8 5 -8
-11 0 -29 3 -40 8 -25 11 1 11 35 0z m-477 -16 c-4 -10 -22 -14 -62 -14 -54 1
-55 1 -26 14 42 18 95 18 88 0z m197 -27 c0 -7 -9 -23 -20 -35 -12 -12 -18
-22 -15 -22 3 0 1 -9 -5 -20 -10 -20 -40 -28 -40 -12 0 5 11 19 24 31 13 13
27 34 30 47 7 25 26 33 26 11z m666 -20 c4 -4 0 -7 -9 -7 -9 0 -18 4 -21 9 -7
10 20 9 30 -2z m258 -3 c9 -9 16 -11 16 -4 0 6 5 8 10 5 18 -11 11 -22 -12
-20 -13 1 -29 3 -35 4 -15 1 -18 31 -4 31 5 0 17 -7 25 -16z m-93 -57 c-10 -9
-11 -8 -5 6 3 10 9 15 12 12 3 -3 0 -11 -7 -18z m-191 3 c18 -12 2 -12 -25 0
-13 6 -15 9 -5 9 8 0 22 -4 30 -9z m320 -15 c0 -14 -2 -25 -4 -25 -2 0 -6 11
-8 25 -3 14 -1 25 3 25 5 0 9 -11 9 -25z m100 15 c0 -5 -8 -10 -17 -11 -15 0
-15 -2 2 -9 l20 -9 -20 0 c-11 0 -26 3 -34 8 -12 8 0 16 47 30 1 1 2 -3 2 -9z
m-360 -14 c0 -11 -19 -15 -25 -6 -3 5 1 10 9 10 9 0 16 -2 16 -4z m715 -57
c-4 -5 -14 -8 -23 -8 -15 1 -15 2 1 6 9 2 14 9 11 15 -4 7 -2 8 5 4 6 -4 9
-12 6 -17z m225 11 c13 -9 13 -10 0 -9 -8 0 -24 4 -35 9 l-20 9 20 0 c11 0 27
-4 35 -9z m-1415 -10 c-3 -5 -11 -10 -16 -10 -6 0 -7 5 -4 10 3 6 11 10 16 10
6 0 7 -4 4 -10z m1496 -13 c-10 -9 -11 -8 -5 6 3 10 9 15 12 12 3 -3 0 -11 -7
-18z m116 7 c-3 -3 -12 -4 -19 -1 -8 3 -5 6 6 6 11 1 17 -2 13 -5z m313 -7 c0
-9 -10 -12 -30 -9 -35 5 -30 22 6 22 13 0 24 -6 24 -13z m-17 -44 c-7 -2 -19
-2 -25 0 -7 3 -2 5 12 5 14 0 19 -2 13 -5z m-163 -23 c0 -5 -2 -10 -4 -10 -3
0 -8 5 -11 10 -3 6 -1 10 4 10 6 0 11 -4 11 -10z m-566 -35 c3 -9 0 -15 -9
-15 -9 0 -12 6 -9 15 4 8 7 15 9 15 2 0 5 -7 9 -15z"/>
<path d="M1154 1466 c-113 -42 -171 -91 -218 -184 -35 -70 -50 -146 -50 -252
0 -115 24 -179 89 -239 35 -33 100 -62 109 -49 2 1 15 62 29 133 38 192 114
556 122 588 9 33 1 34 -81 3z"/>
<path d="M1424 1114 l-80 -376 47 5 c187 22 340 254 326 492 -5 94 -27 146
-82 193 -34 31 -95 62 -119 62 -7 0 -42 -141 -92 -376z"/>
<path d="M345 2180 c4 -6 11 -8 16 -5 14 9 11 15 -7 15 -8 0 -12 -5 -9 -10z"/>
<path d="M278 2173 c10 -4 10 -8 1 -19 -7 -8 -7 -14 -1 -14 12 0 23 26 15 34
-4 3 -11 6 -17 5 -6 0 -5 -3 2 -6z"/>
</g>
</svg>
